<?xml version="1.0" standalone="no"?>
<!DOCTYPE svg PUBLIC "-//W3C//DTD SVG 20010904//EN"
 "http://www.w3.org/TR/2001/REC-SVG-20010904/DTD/svg10.dtd">
<svg version="1.0" xmlns="http://www.w3.org/2000/svg"
 width="16.000000pt" height="16.000000pt" viewBox="0 0 16.000000 16.000000"
 preserveAspectRatio="xMidYMid meet">
<metadata>
Created by potrace 1.11, written by Peter Selinger 2001-2013
</metadata>
<g transform="translate(0.000000,16.000000) scale(0.006154,-0.006154)"
fill="#000000" stroke="none">
<path d="M313 1550 c-66 -33 -100 -67 -136 -134 -33 -63 -31 -183 5 -252 64
-123 206 -182 338 -143 62 19 131 78 163 139 97 192 -24 405 -237 417 -64 4
-77 2 -133 -27z"/>
<path d="M1223 1564 c-58 -21 -126 -85 -157 -146 -21 -41 -26 -66 -26 -122 0
-84 23 -143 78 -199 62 -65 104 -82 202 -82 98 0 140 17 202 82 55 56 78 115
78 198 0 89 -29 155 -94 212 -79 69 -186 91 -283 57z"/>
<path d="M2087 1566 c-119 -43 -193 -150 -191 -276 1 -115 55 -200 159 -251
59 -29 71 -31 139 -27 56 4 85 11 119 31 168 99 198 317 63 453 -78 78 -190
105 -289 70z"/>
</g>
</svg>
